<?xml version="1.0" encoding="utf-8"?><svg version="1.1" id="Layer_1" xmlns="http://www.w3.org/2000/svg" xmlns:xlink="http://www.w3.org/1999/xlink" x="0px" y="0px" viewBox="0 0 122.88 101.16" style="enable-background:new 0 0 122.88 101.16" xml:space="preserve"><style type="text/css">.st0{fill-rule:evenodd;clip-rule:evenodd;}</style><g><path class="st0" d="M35.34,16.5h72.75v30.73H35.34V16.5L35.34,16.5z M48.71,24.37h4.48v8.16c0,1.71-0.14,3.02-0.44,3.92 c-0.29,0.89-0.88,1.65-1.77,2.27c-0.89,0.62-2.02,0.93-3.4,0.93c-1.46,0-2.59-0.21-3.39-0.62c-0.8-0.41-1.42-1.01-1.86-1.8 c-0.44-0.79-0.7-1.76-0.77-2.93l4.26-0.6c0.01,0.66,0.06,1.15,0.17,1.47c0.1,0.32,0.28,0.58,0.53,0.78 c0.17,0.13,0.41,0.19,0.73,0.19c0.5,0,0.87-0.19,1.1-0.58c0.23-0.39,0.35-1.04,0.35-1.95V24.37L48.71,24.37z M55.3,31.9 c0-2.45,0.66-4.36,1.97-5.73c1.32-1.37,3.15-2.05,5.5-2.05c2.41,0,4.26,0.67,5.56,2.01c1.3,1.34,1.95,3.23,1.95,5.64 c0,1.76-0.28,3.19-0.85,4.32c-0.57,1.12-1.39,2-2.47,2.62c-1.08,0.63-2.42,0.94-4.02,0.94c-1.63,0-2.98-0.27-4.05-0.81 c-1.07-0.54-1.94-1.4-2.6-2.57C55.63,35.12,55.3,33.65,55.3,31.9L55.3,31.9z M59.76,31.91c0,1.52,0.27,2.61,0.81,3.27 c0.55,0.66,1.29,0.99,2.22,0.99c0.96,0,1.71-0.33,2.23-0.97c0.53-0.65,0.79-1.81,0.79-3.5c0-1.41-0.28-2.45-0.82-3.1 c-0.55-0.65-1.3-0.98-2.24-0.98c-0.9,0-1.63,0.33-2.17,0.99C60.03,29.28,59.76,30.38,59.76,31.91L59.76,31.91z M72.4,24.37h8.37 c1.39,0,2.46,0.36,3.21,1.08c0.75,0.72,1.12,1.61,1.12,2.67c0,0.89-0.27,1.65-0.8,2.28c-0.35,0.43-0.88,0.76-1.56,1.01 c1.04,0.26,1.8,0.7,2.29,1.34c0.49,0.63,0.73,1.43,0.73,2.38c0,0.78-0.17,1.48-0.52,2.1c-0.35,0.62-0.83,1.11-1.43,1.48 c-0.38,0.22-0.94,0.39-1.7,0.49c-1.01,0.14-1.67,0.21-2,0.21H72.4V24.37L72.4,24.37z M76.9,30.27h1.95c0.7,0,1.18-0.13,1.46-0.37 c0.27-0.25,0.41-0.61,0.41-1.09c0-0.44-0.14-0.78-0.41-1.03c-0.27-0.25-0.75-0.37-1.43-0.37H76.9V30.27L76.9,30.27z M76.9,36.17 h2.28c0.77,0,1.31-0.14,1.63-0.43c0.32-0.28,0.47-0.66,0.47-1.14c0-0.44-0.15-0.8-0.47-1.07c-0.31-0.27-0.86-0.41-1.65-0.41H76.9 V36.17L76.9,36.17z M87.02,34.43l4.24-0.28c0.09,0.71,0.28,1.26,0.56,1.63c0.46,0.61,1.12,0.91,1.97,0.91 c0.64,0,1.13-0.15,1.47-0.47c0.35-0.31,0.52-0.67,0.52-1.08c0-0.39-0.16-0.74-0.49-1.05c-0.33-0.31-1.09-0.59-2.28-0.87 c-1.96-0.45-3.35-1.06-4.19-1.82c-0.84-0.76-1.26-1.72-1.26-2.9c0-0.77,0.22-1.5,0.65-2.18c0.43-0.69,1.08-1.23,1.94-1.62 c0.86-0.39,2.05-0.59,3.55-0.59c1.85,0,3.25,0.36,4.22,1.07c0.97,0.71,1.54,1.85,1.73,3.41l-4.2,0.26 c-0.11-0.68-0.35-1.18-0.7-1.49c-0.36-0.31-0.85-0.47-1.48-0.47c-0.52,0-0.91,0.12-1.17,0.34c-0.26,0.23-0.39,0.51-0.39,0.84 c0,0.24,0.11,0.45,0.32,0.64c0.21,0.2,0.7,0.38,1.49,0.55c1.95,0.44,3.35,0.88,4.19,1.33c0.84,0.45,1.46,1,1.84,1.67 c0.38,0.66,0.58,1.4,0.58,2.23c0,0.96-0.26,1.85-0.77,2.67c-0.51,0.81-1.23,1.43-2.15,1.85c-0.92,0.42-2.08,0.63-3.48,0.63 c-2.46,0-4.16-0.49-5.1-1.48C87.68,37.2,87.14,35.95,87.02,34.43L87.02,34.43z M23.42,91.7c-0.67,2.24-1.63,4.05-2.8,5.46h88.47 l0.04,0c3.19-0.18,5.57-1.03,7.16-2.54c1.56-1.48,2.43-3.69,2.62-6.62V3.97H24.36v13.58v66.48C24.36,87.43,24.4,88.42,23.42,91.7 L23.42,91.7z M13.15,101.13c-0.45,0.03-0.91,0.03-1.36,0.01c-1.82-0.11-3.61-0.67-5.23-1.62c-3.55-2.09-6.29-6.09-6.54-11.32 C0.01,88.12,0,88.03,0,87.95v-70.4c0-1.1,0.89-1.98,1.98-1.98H20.4V1.98c0-1.1,0.89-1.98,1.98-1.98h98.52 c1.1,0,1.98,0.89,1.98,1.98v86.07c0,0.1-0.01,0.21-0.02,0.31c-0.27,3.9-1.55,6.95-3.84,9.13c-2.28,2.17-5.5,3.38-9.67,3.62 c-0.08,0.01-0.17,0.02-0.26,0.02H13.15L13.15,101.13z M12.05,97.19c0.1-0.02,0.21-0.03,0.32-0.03h0.72 c0.79-0.08,1.56-0.3,2.28-0.68c4.41-2.31,5.02-7.95,5.02-12.42V19.53H3.97v68.41c0,0.02,0,0.05,0,0.07 c0.19,3.76,2.12,6.62,4.61,8.09c1.08,0.64,2.26,1.01,3.43,1.08L12.05,97.19L12.05,97.19z M35.8,60.85c-1.1,0-1.98-0.89-1.98-1.98 c0-1.1,0.89-1.98,1.98-1.98h30.26c1.1,0,1.98,0.89,1.98,1.98c0,1.1-0.89,1.98-1.98,1.98H35.8L35.8,60.85z M74.73,60.85 c-1.1,0-1.99-0.89-1.99-1.99s0.89-1.99,1.99-1.99h32.63c1.1,0,1.99,0.89,1.99,1.99s-0.89,1.99-1.99,1.99H74.73L74.73,60.85z M74.73,72.36c-1.1,0-1.99-0.89-1.99-1.99c0-1.1,0.89-1.99,1.99-1.99h32.63c1.1,0,1.99,0.89,1.99,1.99c0,1.1-0.89,1.99-1.99,1.99 H74.73L74.73,72.36z M74.73,83.87c-1.1,0-1.99-0.89-1.99-1.99c0-1.1,0.89-1.99,1.99-1.99h32.63c1.1,0,1.99,0.89,1.99,1.99 c0,1.1-0.89,1.99-1.99,1.99H74.73L74.73,83.87z M35.8,83.87c-1.1,0-1.98-0.89-1.98-1.98c0-1.1,0.89-1.98,1.98-1.98h30.26 c1.1,0,1.98,0.89,1.98,1.98c0,1.1-0.89,1.98-1.98,1.98H35.8L35.8,83.87z M36.76,72.36c-1.1,0-1.98-0.89-1.98-1.98 c0-1.1,0.89-1.98,1.98-1.98h30.26c1.1,0,1.98,0.89,1.98,1.98c0,1.1-0.89,1.98-1.98,1.98H36.76L36.76,72.36z"/></g></svg>